PathFileType	4	(X/Y/Z)	C:\Users\WrightLab\Desktop\Jo\P5V25.trc
DataRate	CameraRate	NumFrames	NumMarkers	Units	OrigDataRate	OrigDataStartFrame	OrigNumFrames
100.00	100.00	       20	19	mm	100.00	494	       790
Frame#	Time	Headset_Front			Headset_Back			Headset_Left			Headset_Right			Left_Shoulder			Right_Shoulder			Sternum			C7			Left Elbow			Right Elbow			Left Wrist			Right Wrist			Left ASIS			Right ASIS			S2			Left Knee			Right Knee			Left Ankle			Right Ankle			
		X1	Y1	Z1	X2	Y2	Z2	X3	Y3	Z3	X4	Y4	Z4	X5	Y5	Z5	X6	Y6	Z6	X7	Y7	Z7	X8	Y8	Z8	X9	Y9	Z9	X10	Y10	Z10	X11	Y11	Z11	X12	Y12	Z12	X13	Y13	Z13	X14	Y14	Z14	X15	Y15	Z15	X16	Y16	Z16	X17	Y17	Z17	X18	Y18	Z18	X19	Y19	Z19	

494	4.930	158.50273	1371.09424	-72.42261	201.28514	1525.53418	-210.18475							95.36465	1485.73828	-423.71210	60.51552	1478.25964	-30.65952	29.11450	1264.37939	-256.07239	-101.03917	1524.35010	-281.52258	103.78638	1380.09338	-382.61575	-35.92276	1154.83777	31.64561	121.19555	1238.58679	-515.92493	156.85577	1001.45581	93.69053	42.05722	903.85583	-399.91666	-134.39445	913.47522	-168.42299	-222.76172	1016.27423	-454.21655	27.09903	495.90631	-443.09546	-278.86020	485.62726	-186.66357	-59.55228	83.91916	-386.41815	-425.82535	107.36455	-278.06824	
495	4.940	158.50273	1371.09424	-72.42261	201.63683	1525.31238	-209.99850							95.72681	1485.68823	-423.09882	61.13337	1478.04663	-30.37895	29.29080	1264.41235	-255.99611	-100.39787	1524.02466	-281.11914	104.04432	1380.42993	-382.84937	-35.29752	1154.38232	31.78882	121.54214	1238.80176	-516.13818	157.41228	1000.35956	93.24194	42.16702	903.75372	-400.04855	-133.75371	912.94391	-168.53313	-222.35809	1016.31525	-453.81808	27.06320	495.87421	-443.11166	-278.56543	485.64725	-186.38794	-59.80357	84.19168	-386.51593	-425.84476	107.40060	-278.04471	
496	4.950	158.33456	1370.53357	-72.98462	202.16185	1524.93176	-209.77760							96.25889	1485.84399	-422.98755	61.52607	1477.93188	-30.19267	29.62971	1264.35803	-255.89935	-99.97355	1524.01746	-280.53513	104.38039	1379.98608	-382.93338	-35.13397	1154.08606	31.99550	121.80729	1239.00830	-516.29254	157.24231	1000.01294	93.38977	42.29313	903.77142	-400.04929	-133.20096	912.44904	-168.38271	-222.11491	1016.54041	-454.06125	27.29315	496.25391	-443.60110	-278.34167	485.51053	-186.29567	-59.55280	83.93150	-386.41232	-426.01071	107.73936	-277.81503	
497	4.960	158.64549	1370.40063	-72.78699	202.34232	1524.95935	-209.80119							96.50050	1485.78528	-422.47461	61.66045	1477.91150	-30.04797	30.15723	1264.22766	-255.82524	-99.72861	1524.22937	-280.48093	104.85143	1380.23425	-382.09033	-34.97039	1153.95801	32.08598	122.29463	1238.87781	-515.55444	157.59848	999.70044	92.92675	42.57574	903.93512	-400.34415	-132.64461	911.79773	-168.12958	-221.82901	1016.47607	-453.95651	27.19271	496.07394	-443.33990	-277.92752	485.22556	-186.21945	-60.29452	83.61722	-386.48569	-426.15900	107.94710	-277.88309	
498	4.970	159.34662	1370.58130	-72.31171	202.82303	1524.97864	-209.34552							96.85003	1486.08240	-422.65207	61.92111	1477.86487	-30.01659	30.72072	1264.24707	-255.90120	-99.47503	1524.35693	-280.16248	105.54797	1379.97827	-382.19101	-34.47440	1153.81433	32.47983	122.76093	1239.27747	-515.48059	157.65378	999.40167	93.26885	42.78160	903.63800	-400.20703	-132.05620	911.97266	-167.75999	-221.56482	1016.42572	-453.85834	27.34123	496.03799	-443.42361	-277.60794	485.26086	-186.11615	-59.68943	84.01143	-386.35022	-425.98502	107.80910	-277.77518	
499	4.980	160.78088	1369.85620	-71.81882	203.15633	1525.00525	-209.19247							97.08531	1486.33923	-422.36893	61.98859	1477.77356	-29.70794	31.09860	1264.40039	-255.79536	-99.18142	1524.30408	-279.90311	105.80107	1380.33972	-381.90945	-34.01427	1153.50012	32.65162	123.15555	1239.23230	-514.86511	157.91992	998.92188	93.20913	43.36321	904.11383	-400.48090	-131.68214	911.52905	-167.53139	-221.33330	1016.36804	-453.77444	27.25537	496.19153	-443.46497	-277.41763	484.97141	-186.47562	-59.67521	84.02104	-386.34686	-425.94791	107.85405	-277.74524	
500	4.990	161.07323	1369.99438	-71.86089	203.32809	1525.03613	-209.21298							97.18003	1486.39307	-422.25198	62.32172	1477.75269	-29.85197	31.43242	1264.06152	-255.46141	-99.13581	1524.30408	-279.46097	106.72021	1379.94519	-382.33746	-33.91747	1153.46667	32.84853	123.54095	1239.45715	-515.10559	158.33629	998.56891	93.29063	43.63164	904.23438	-400.21930	-131.58871	911.55060	-167.48740	-221.14253	1016.41516	-454.14120	27.37350	496.14951	-443.42474	-277.12982	485.09979	-186.44702	-59.74442	84.23040	-386.50262	-425.94809	108.26162	-277.77249	
501	5.000	161.31424	1369.58704	-72.30064	203.70778	1524.92041	-209.08542							97.46806	1486.37231	-422.36105	62.50236	1477.61194	-29.63057	31.57578	1263.97766	-255.60152	-98.72678	1524.17566	-279.00806	106.26315	1380.30359	-381.62668	-33.68785	1153.38879	33.11553	123.86930	1239.62659	-514.59833	158.75740	998.10339	93.74279	44.28294	904.24487	-400.26166	-131.49721	911.57837	-167.44598	-220.85359	1016.33722	-454.03745	27.36006	496.26483	-443.43188	-276.42221	485.53909	-186.12759	-59.25951	83.60440	-386.21152	-425.73492	108.12238	-277.63049	
502	5.010	161.91579	1369.54285	-71.88085	204.27428	1524.96887	-208.82556							97.62281	1486.70154	-422.61807	63.25515	1477.51062	-29.53678	31.73750	1263.99561	-255.81523	-98.62035	1524.18787	-279.01315	106.89835	1380.09998	-381.46042	-33.48406	1152.98877	32.86504	124.04427	1239.80090	-514.69244	158.74203	998.13361	94.07538	44.38783	904.52972	-400.32169	-131.42964	911.60870	-167.41782	-220.46965	1016.75323	-454.17444	27.57047	496.30902	-443.30328	-276.06113	485.53894	-186.32309	-59.67220	84.03769	-386.33932	-425.69995	108.64941	-278.02719	
503	5.020	162.32964	1369.51636	-71.82641	204.32243	1524.93042	-208.61711							97.85787	1486.76892	-421.90182	63.64544	1477.42139	-29.40871	31.98791	1264.17798	-256.22250	-98.45460	1524.31079	-279.00366	107.06761	1380.36780	-381.26346	-33.01887	1152.64404	32.99006	124.32017	1239.97388	-514.86212	158.75374	998.15125	94.62196	44.83324	904.37219	-400.13577	-131.38863	911.62183	-167.39941	-220.00726	1016.80841	-453.94406	27.72293	496.27173	-443.22583	-275.82932	485.46194	-186.40250	-59.73333	84.25694	-386.49109	-425.51852	108.82540	-277.69778	
504	5.030	162.62424	1369.42761	-71.47610	204.72675	1524.91345	-208.53069							98.48087	1487.25476	-422.44702	63.72662	1477.41614	-29.32498	32.03972	1264.16809	-255.79138	-98.35654	1524.33057	-279.00586	107.61726	1380.43970	-381.60065	-32.92246	1152.68079	33.00930	124.54995	1240.11902	-515.00323	158.73213	998.06873	95.00671	45.44580	904.19427	-399.77274	-131.37762	911.63312	-167.39639	-219.61938	1017.05420	-454.19699	28.13346	496.42078	-442.57986	-275.98257	485.55353	-186.29359	-59.50135	83.99252	-386.38794	-425.38046	109.05384	-277.85919	
505	5.040	162.76520	1369.49011	-71.71113	204.68684	1525.02795	-208.37666							98.61200	1487.25867	-421.83813	63.77206	1477.38025	-29.26048	32.12229	1264.36023	-255.99100	-98.09893	1524.42554	-278.61218	107.79956	1381.01892	-381.32721	-32.89513	1152.59216	33.13416	124.77493	1240.66052	-514.43939	158.43964	998.09369	95.81011	46.00248	904.64148	-400.03021	-130.82159	912.08392	-167.41589	-219.18939	1016.91266	-454.04666	28.24336	496.50409	-442.12531	-275.55029	485.65936	-186.25308	-59.86087	84.10358	-386.27957	-425.31775	109.12664	-278.23880	
506	5.050	162.62424	1369.42761	-71.47610	204.94757	1524.82166	-208.17403							98.84461	1487.70642	-422.27396	63.96668	1477.26880	-29.31879	32.12229	1264.36023	-255.99100	-97.80558	1524.42163	-278.53540	107.69873	1380.96814	-381.25589	-33.17657	1152.75256	33.12920	124.89494	1240.75842	-514.50848	158.07304	998.25989	96.54015	46.39850	904.45673	-399.52765	-130.29434	912.29285	-167.33748	-218.78059	1016.75513	-453.90729	28.58500	496.31439	-441.70773	-275.49530	485.71896	-186.44217	-59.61780	83.88058	-386.20511	-425.33215	109.11575	-277.81485	
507	5.060	162.89655	1369.42725	-71.86179	205.09802	1524.93567	-208.40515							99.02535	1487.57349	-422.17538	63.79921	1477.34436	-29.21420	32.31783	1264.46594	-255.73975	-97.69673	1524.42920	-278.54208	107.92236	1380.70166	-381.31888	-32.78797	1152.81653	33.49213	125.90067	1241.50623	-516.27649	157.75458	998.30762	97.60719	46.65092	904.71112	-399.80109	-129.97078	912.30096	-167.27267	-218.36369	1016.86743	-454.10403	29.04362	496.26773	-441.30261	-275.39728	485.74951	-186.57922	-59.65254	84.06326	-386.32895	-425.34787	109.12852	-277.83267	
508	5.070	162.76520	1369.49011	-71.71113	205.06215	1525.06885	-208.24380							99.08504	1487.62268	-422.04675	63.95660	1477.22156	-29.30353	32.31783	1264.46594	-255.73975	-97.40659	1524.55664	-278.82162	108.48908	1380.94971	-381.71030	-33.34347	1152.87085	33.38120	125.99880	1241.58240	-516.25623	157.48772	998.56348	98.25180	47.19286	904.05072	-399.64224	-129.53825	912.41937	-167.19798	-218.00710	1016.73395	-453.98190	29.17780	496.36539	-440.77271	-275.41223	485.67380	-186.77237	-59.48089	83.86592	-386.27921	-425.31055	109.16596	-278.18817	
509	5.080	162.89655	1369.42725	-71.86179	205.23335	1525.33484	-208.35478							99.44199	1487.52576	-422.08694	63.75963	1477.18542	-29.40182	32.96497	1264.86340	-256.28400	-97.31884	1524.55615	-278.82895	108.45808	1381.00354	-381.70581	-33.42666	1153.42615	33.91982	126.14038	1241.62549	-516.26221	157.36848	998.80121	99.09973	47.13779	904.65979	-399.15204	-129.48897	912.44617	-167.17859	-217.63248	1016.96594	-454.44955	29.42331	496.21875	-440.58691	-275.27136	485.71365	-186.93196	-59.64343	84.04563	-386.33795	-425.33835	109.19058	-277.79477	
510	5.090	162.76520	1369.49011	-71.71113	205.41127	1525.50000	-207.71596							99.72822	1487.52075	-422.32507	63.74623	1477.14990	-29.39615	33.26280	1264.94897	-256.03244	-97.20774	1524.54480	-279.05109	108.91567	1380.82361	-381.92630	-33.67072	1153.62305	34.30038	126.30292	1241.65186	-516.28119	156.95470	998.88251	99.99373	47.46503	904.67822	-399.31253	-129.34940	912.48969	-167.38182	-217.30949	1016.82574	-454.34201	29.65765	496.09171	-440.30038	-275.56299	485.64407	-187.03366	-59.21266	83.61274	-386.21146	-425.32913	109.21865	-277.77783	
511	5.100	162.89655	1369.42725	-71.86179	205.58871	1525.60913	-207.45602							99.85666	1487.34058	-422.08078	63.52752	1477.09326	-29.40991	33.31652	1264.89587	-255.52000	-96.84666	1524.43616	-279.40558	109.36860	1381.11536	-382.26263	-33.65859	1153.82166	34.35155	126.88339	1241.56567	-517.09363	156.27649	999.16364	101.11000	47.60980	904.71912	-398.95328	-129.36621	912.85797	-167.58226	-217.02112	1016.70728	-454.24493	30.11774	495.87576	-440.17834	-275.54996	485.65771	-187.03230	-59.20599	83.60360	-386.21628	-425.17352	109.09525	-277.68372	
512	5.110	162.76520	1369.49011	-71.71113	205.62790	1525.80310	-207.34203							100.04905	1487.56982	-422.35535	63.59797	1476.91284	-29.34656	33.60074	1265.05408	-255.53159	-96.78969	1524.44031	-279.40906	109.36860	1381.11536	-382.26263	-33.67311	1154.04346	34.48337	126.65154	1241.47766	-516.46844	155.96886	999.39001	101.79807	47.73407	904.59570	-398.94519	-129.28020	912.74115	-167.43654	-216.73988	1016.58044	-454.15204	30.44487	495.67593	-440.06293	-275.37509	485.58777	-187.14716	-59.62402	84.02177	-386.35071	-425.33957	109.31094	-277.74924	
513	5.120	162.49828	1369.30457	-71.22815	205.63924	1525.82837	-207.33328							100.50928	1487.51111	-422.29858	63.44870	1477.07117	-29.47662	33.84245	1264.94580	-255.35733	-96.73055	1524.54419	-279.90366	109.90272	1380.89355	-381.99506	-33.85316	1154.17407	34.63102	127.19923	1241.61047	-517.13403	155.74242	999.76904	102.91571	47.93076	904.53461	-398.89063	-129.34943	912.77521	-167.72919	-216.49681	1016.46838	-454.07214	30.70707	495.79144	-439.87476	-275.55661	485.66333	-187.03697	-59.21204	83.60643	-386.21445	-425.34024	109.35971	-277.73132	
